<svg width="662" height="662" viewBox="0 0 662 662" fill="none" xmlns="http://www.w3.org/2000/svg">
<g clip-path="url(#clip0_281_21)">
<rect x="11" y="11" width="640" height="640" rx="34" fill="black"/>
<path d="M333.824 331.454C352.823 305.952 310.751 265.41 253.823 274.452C201.17 282.815 138.16 334.126 121.823 418.452C108.323 472.452 115.999 569.992 171 654.5" stroke="white" stroke-width="11"/>
<path d="M693.669 315.744C647.193 405.225 568.141 457.41 514.493 472.247C433.052 499.546 357.368 469.966 324.165 428.255C288.266 383.158 302.839 326.577 334.391 330.557" stroke="white" stroke-width="11"/>
<path d="M333.705 331.782C346.283 360.99 402.434 344.841 423.082 291.025C442.179 241.25 429.27 161.023 364.424 104.694C324.42 65.9915 243.989 24.6087 143.301 29.959C116.801 31.3671 97.4113 35.1472 71.802 40.4591C19.1901 55.5168 12.2304 58.79 6.49999 63" stroke="white" stroke-width="11"/>
<circle cx="331" cy="331" r="26.5" fill="black" stroke="white" stroke-width="11"/>
</g>
<rect x="5.5" y="5.5" width="651" height="651" rx="39.5" stroke="white" stroke-width="11"/>
<defs>
<clipPath id="clip0_281_21">
<rect x="11" y="11" width="640" height="640" rx="34" fill="white"/>
</clipPath>
</defs>
</svg>
