<svg width="662" height="662" viewBox="0 0 662 662" fill="none" xmlns="http://www.w3.org/2000/svg">
<g clip-path="url(#clip0_280_2)">
<rect x="11" y="11" width="640" height="640" rx="34" fill="white"/>
<path d="M333.824 331.453C352.823 305.951 310.751 265.409 253.823 274.451C201.171 282.814 138.16 334.125 121.823 418.451C108.323 472.451 118.001 571.991 173.002 656.499" stroke="black" stroke-width="11"/>
<path d="M693.671 315.744C647.195 405.225 568.143 457.41 514.495 472.247C433.054 499.546 357.37 469.966 324.167 428.255C288.268 383.158 302.841 326.577 334.393 330.557" stroke="black" stroke-width="11"/>
<path d="M333.707 331.781C346.285 360.989 402.436 344.84 423.084 291.024C442.181 241.249 429.272 161.022 364.426 104.693C324.422 65.9905 243.991 24.6078 143.303 29.958C116.803 31.3661 97.4133 35.1462 71.8039 40.4581C19.1921 55.5158 12.2304 60.79 6.49999 65" stroke="black" stroke-width="11"/>
<circle cx="331" cy="331" r="26.5" fill="white" stroke="black" stroke-width="11"/>
</g>
<rect x="5.5" y="5.5" width="651" height="651" rx="39.5" stroke="black" stroke-width="11"/>
<defs>
<clipPath id="clip0_280_2">
<rect x="11" y="11" width="640" height="640" rx="34" fill="white"/>
</clipPath>
</defs>
</svg>
